# xmcd
#
# Track frame offsets:
#	150
#	18767
#	35417
#	52142
#	68272
#	86867
#	104867
#	123737
#	147765
#	167265
#	186315
#	202515
#	219167
#	238215
#	259365
#	279540
#	306550
#	323725
#
# Disc length: 4533
#
# Revision: 1
# Processed by: cddbd v1.5.1PL0 Copyright (c) Steve Scherf et al.
# Submitted via: FCDBAsst 2.0
# Normalized: r0:DSETVAR1
#
DISCID=0811b312
DTITLE=Various Artist - All Night Dance Party [CD1)
DYEAR=1900
DGENRE=
TTITLE0=C&C Music Factory - Gonna Make You Sweat (Everybody Dance Now)
TTITLE1=Culture Beat - Got To Get It
TTITLE2=Diana King - Shy Guy
TTITLE3=Jim Carrey - Cuban Pete
TTITLE4=Luther Vandross - Ain't No Stoppin' Us Now
TTITLE5=Shabba Ranks - Housecall
TTITLE6=Sunscreem - Perfect Motion
TTITLE7=Teena Marie - Oo La La La
TTITLE8=Zhane - Hey Mr Dj
TTITLE9=Offshore - I Can't Take The Power
TTITLE10=Pasadenas - I'm Doing Fine Now
TTITLE11=MN8 - I've Got A Little Something For You
TTITLE12=Patra - Pull Up To The Bumper
TTITLE13=Lisa Lisa and Cult Jam - Let The Beat Hit 'em
TTITLE14=Mass Order - Lift Every Voice
TTITLE15=Dan Hartman feat. L. Holloway - Keep The Fire Burnin'
TTITLE16=Ben Liebrand - Pulls (T) Ar
TTITLE17=Apollo 440 - (Don't Fear) The Reaper
EXTD=
EXTT0=
EXTT1=
EXTT2=
EXTT3=
EXTT4=
EXTT5=
EXTT6=
EXTT7=
EXTT8=
EXTT9=
EXTT10=
EXTT11=
EXTT12=
EXTT13=
EXTT14=
EXTT15=
EXTT16=
EXTT17=
PLAYORDER=
